# xmcd CD database file
#
# Track frame offsets:
#	150
#	18391
#	37877
#	65323
#	74187
#	118681
#	137210
#	141482
#	165671
#	187901
#	214425
#
# Disc length: 3259 seconds
#
# Revision: 0
# Processed by: cddbd v1.5.2PL0 Copyright (c) Steve Scherf et al.
# Submitted via: CDex 1.70beta2
#
DISCID=ab0cb90b
DTITLE=Bernt Küpper - Strictly Two In Murky Zones
DYEAR=2007
DGENRE=Jazz
TTITLE0=Go For It!
TTITLE1=Somewhere Along The Line
TTITLE2=Sandscapes Of Maspalomas
TTITLE3=Up And Down Montagne De Bueren
TTITLE4=Trek With No Return
TTITLE5=November Blue
TTITLE6=Intermezzo
TTITLE7=Gro￟markt Theme
TTITLE8=Windfall Nemesis
TTITLE9=Strictly Two In Murky Zones
TTITLE10=Intermezzo Video Clip
EXTD=YEAR: 2007
EXTT0=
EXTT1=
EXTT2=
EXTT3=
EXTT4=
EXTT5=
EXTT6=
EXTT7=
EXTT8=
EXTT9=
EXTT10=
PLAYORDER=
